<svg xmlns="http://www.w3.org/2000/svg" xmlns:xlink="http://www.w3.org/1999/xlink" width="1110" height="494.4" viewBox="0 0 293.7 130.8" xmlns:v="https://vecta.io/nano"><style><![CDATA[.B{fill:#1a1a1a}.C{fill:#333}.D{font-family:Segoe UI}.E{fill:#4d4d4d}.F{opacity:.824}.G{fill:#5296fc}.H{font-size:1.411px}]]></style><path fill="#502d16" d="M68.84 54.3h156v3h-156z" paint-order="stroke fill markers"/><path d="M78.227 57.297H84.4v67.54h-6.174zm131.1 0h6.174v67.54h-6.174z" paint-order="stroke fill markers"/><g class="B"><path d="M96.337 29.726h5v23h-5z" paint-order="stroke fill markers"/><path d="M83.837 52.226h30v2h-30zm-9-44.44h48v27h-48z" paint-order="stroke fill markers"/></g><path fill="#fff" d="M75.837 8.786h46v25h-46z" paint-order="stroke fill markers"/><path d="M75.837 8.786h46v2.5h-46z" paint-order="stroke fill markers" class="G"/><text x="22.958" y="87.322" fill="#fff" xml:space="preserve" class="D H"><tspan x="76.845" y="10.548">Test Site</tspan></text><path d="M85.287 14.256h9v10h-9zm-2.45 12.17h32v.15h-32zm3.5 1.7h8v1.5h-8z" paint-order="stroke fill markers" class="G"/><path d="M86.337 31.126h25v.6h-25zm0 1.4h25v.6h-25z" paint-order="stroke fill markers" fill="#b3b3b3"/><path d="M103.337 14.516h7v1.8h-7zm-4.5 2.92h16v.15h-16z" paint-order="stroke fill markers" class="G"/><path d="M99.843 18.856h14v.7h-14zm0 1.43h14v.7h-14zm0 1.43h14v.7h-14zm0 1.44h14v.7h-14zm0 1.47h14v.7h-14z" paint-order="stroke fill markers" fill="#b3b3b3"/><path d="M122.942 7.8h48v27h-48z" paint-order="stroke fill markers" class="B"/><path fill="#999" d="M123.942 8.8h46v25h-46z" paint-order="stroke fill markers"/><path d="M168.982 12.43h-37v20h37zm-38.04 0h-6v20h6z" paint-order="stroke fill markers" class="C"/><text x="85" y="38.392" fill="#fca" font-size=".529" xml:space="preserve" class="D"><tspan x="132.482" y="13.992">&lt;!doctype html&gt;</tspan><tspan x="132.482" y="14.653">&lt;body&gt;</tspan><tspan x="132.482" y="15.315"> I wonder if you're reading this.</tspan><tspan x="132.482" y="15.976"> I wonder why you're reading this.</tspan><tspan x="132.482" y="16.638"> This wasn't meant to be read.</tspan><tspan x="132.482" y="17.299"> But here you are anyway.</tspan><tspan x="132.482" y="19.945"> I wish I had some cool little secret or something to put here.</tspan><tspan x="132.482" y="20.606"> But I don't.</tspan><tspan x="132.482" y="21.268"> Sorry.</tspan><tspan x="132.482" y="22.591"> ...</tspan><tspan x="132.482" y="23.252"> But maybe...</tspan><tspan x="132.482" y="23.914"> ...</tspan><tspan x="132.482" y="25.237"> &lt;a href="<a xlink:href="https://www.youtube.com/watch?v=oHg5SJYRHA0">https://www.youtube.com/watch?v=oHg5SJYRHA0</a>"&gt;</tspan><tspan x="132.482" y="25.898"> Maybe you'll find something good here.</tspan><tspan x="132.482" y="26.559"> &lt;/a&gt;</tspan><tspan x="132.482" y="27.882">&lt;/body&gt;</tspan></text><path d="M125.445 15.764h5v.5h-5z" paint-order="stroke fill markers" class="E"/><text x="78.15" y="38.015" fill="#fca" font-size=".529" xml:space="preserve" class="D"><tspan x="125.445" y="13.615"> Doc.html</tspan><tspan x="125.445" y="14.277"> Doc.php</tspan><tspan x="125.445" y="14.938"> Doc.txt</tspan><tspan x="125.445" y="15.6"> Doc.doc</tspan><tspan x="125.445" y="16.261"> Rick.html</tspan></text><path d="M168.982 9.46h-44v2h44z" paint-order="stroke fill markers" class="C"/><text x="78.422" y="35.378" fill="#fff" xml:space="preserve" class="D H"><tspan x="125.904" y="10.978">Editor: Test Site</tspan></text><path d="M168.982 12.43h-4v20h4z" paint-order="stroke fill markers" class="E"/><g class="B"><path d="M192.512 29.655h5v23h-5z" paint-order="stroke fill markers"/><path d="M180.012 52.255h30v2h-30zm-9-44.47h48v27h-48z" paint-order="stroke fill markers"/></g><path fill="#fff" d="M172.012 8.785h46v25h-46z" paint-order="stroke fill markers"/><path fill="#7952b3" d="M172.012 8.785h46v2.5h-46z" paint-order="stroke fill markers"/><text x="131.633" y="87.492" fill="#fff" xml:space="preserve" class="D H"><tspan x="173.045" y="10.547">Bootstrap Documentation</tspan></text><path fill="gray" d="M178.412 11.285h.05v22.5h-.05z" paint-order="stroke fill markers"/><path fill="none" stroke="#999" stroke-width=".05" d="M172.512 11.785h5.5v1h-5.5z" paint-order="stroke fill markers"/><path d="M172.812 13.595h3v.3h-3zm0 .8h2.5v.3h-2.5zm0 1.6h2v.3h-2zm0 .8h2.7v.3h-2.7zm0 .8h1.3v.3h-1.3zm0 .8h1.5v.3h-1.5zm0 .8h2.2v.3h-2.2zm0 .8h1.2v.3h-1.2zm0 .8h2.6v.3h-2.6zm0 .8h1.8v.3h-1.8zm0-6.36h2.4v.3h-2.4zm40.1-2.7h1.3v.3h-1.3zm0 .8h1.5v.3h-1.5zm0 .8h2.2v.3h-2.2zm0 .8h1.2v.3h-1.2zm0 .8h2.6v.3h-2.6zm0 .8h1.8v.3h-1.8z" paint-order="stroke fill markers" fill="#999"/><path fill="gray" d="M211.612 11.285h.05v22.5h-.05z" paint-order="stroke fill markers"/><path d="M180.412 12.425h6v1h-6zm0 1.6h28v.3h-28zm0 .88h10v.3h-10zm-.002 1.22h5v.7h-5zm0 1.28h28v.3h-28zm0 .88h15v.3h-15zm0 1.23h2v.7h-2zm0 2.16h28v.3h-28zm0-.88h28v.3h-28zm0 1.76h5v.3h-5zm0 1.22h1v.7h-1zm0 1.3h28v.3h-28zm0 1.7h28v.3h-28zm0-.8h28v.3h-28zm0 2.6h28v.3h-28zm0 .9h24v.3h-24zm0-1.8h28v.3h-28zm0 2.982h5v.7h-5zm0 1.4h28v.3h-28z" paint-order="stroke fill markers" class="E"/><path fill="#e9c6af" d="M141.338 22.07h11v3h-11z" paint-order="stroke fill markers"/><g fill="#d4f5f3"><g transform="matrix(.9466 0 0 .3178 56.186 15.63)"><rect transform="matrix(.8198 .5727 -.5137 .858 0 0)" x="123" y="37.3" width="8.632" height="35.03" rx="4.316" ry="8.853" paint-order="stroke fill markers"/><rect transform="matrix(-.8198 .5727 .5137 .858 0 0)" x="-41.77" y="147.3" width="8.632" height="35.03" rx="4.316" ry="8.853" paint-order="stroke fill markers"/></g><rect x="130.838" y="26.19" width="32.01" height="49.21" rx="10.88" ry="6.879" paint-order="stroke fill markers"/><g transform="matrix(1 0 0 .9848 51.0745 -74.658)"><rect transform="matrix(.8198 .5727 -.5137 .858 0 0)" x="123" y="37.3" width="8.632" height="35.03" rx="4.316" ry="8.853" paint-order="stroke fill markers"/><rect transform="matrix(-.8198 .5727 .5137 .858 0 0)" x="-41.77" y="147.3" width="8.632" height="35.03" rx="4.316" ry="8.853" paint-order="stroke fill markers"/></g><path d="M139.358 24.4h14.97v3.46h-14.97z" paint-order="stroke fill markers"/></g><rect x="138.338" y="5.29" width="17" height="17" rx="3" fill="#502d16" paint-order="stroke fill markers"/><g fill="#254471"><rect x="130.838" y="69.09" width="32.01" height="11.24" rx="4.797" ry="5.062" paint-order="stroke fill markers"/><path d="M130.838 68.6h32v7.144h-32z" paint-order="stroke fill markers"/><rect x="154.454" y="114.99" width="8.334" height="6.35" ry="1.323" paint-order="stroke fill markers" class="B"/><path d="M148.424 77.547l11.104-1.21L164 117.253l-11.104 1.21z" paint-order="stroke fill markers"/><g transform="matrix(-1 0 0 1 243.554 -76.71)"><rect x="104.3" y="191.7" width="8.334" height="6.35" ry="1.323" paint-order="stroke fill markers" class="B"/><path d="M98.27 154.257l11.104-1.21 4.462 40.917-11.104 1.21z" paint-order="stroke fill markers"/></g></g><g transform="matrix(.8976 0 0 .8976 41.109 -57.39)" class="C"><rect transform="scale(-1 1)" x="-120.6" y="194.3" width="2.056" height="6.332" rx=".981"/><g transform="matrix(-.8977 0 0 .8858 188.1 21.81)"><path d="M75 201.6h2.614v1.37H75z" paint-order="stroke fill markers" class="F"/><path d="M75.12 199.6h2.402v4.644H75.12z"/><rect x="77.63" y="199.6" width="1.572" height="5.258" rx="0" ry=".301"/><rect x="73.44" y="199.6" width="1.572" height="5.258" rx="0" ry=".301"/></g></g><path d="M144.378 86.3h5.233v27.97h-5.233z" class="B"/><g class="C"><path d="M124.86 117.556l14.686-4.145v3.647l-14.686 4.145z"/><g transform="matrix(.8977 0 0 .8858 57.419 -54.97)"><rect x="74.15" y="194.8" width="2.29" height="7.148" rx="1.092"/><path d="M73.99 201.6h2.614v1.37H73.99z" paint-order="stroke fill markers" class="F"/><path d="M74.1 199.6H76.5v4.644H74.1z"/><rect x="76.609" y="199.6" width="1.572" height="5.258" rx="0" ry=".301"/><rect x="72.419" y="199.6" width="1.572" height="5.258" rx="0" ry=".301"/></g><path d="M170.36 117.61l-14.686-4.145v3.647l14.686 4.145z"/><rect transform="matrix(-1 0 0 1 50.638 -76.776)" x="-120.6" y="194.3" width="2.056" height="6.332" rx=".981"/><g transform="matrix(-.8977 0 0 .8858 238.738 -54.966)"><path d="M75 201.6h2.614v1.37H75z" paint-order="stroke fill markers" class="F"/><path d="M75.12 199.6h2.402v4.644H75.12z"/><rect x="77.63" y="199.6" width="1.572" height="5.258" rx="0" ry=".301"/><rect x="73.44" y="199.6" width="1.572" height="5.258" rx="0" ry=".301"/></g></g><path d="M144.878 117.8h4.24v5.243h-4.24z" class="B"/><g class="C"><path d="M139.678 112.9c-1.492 0-2.693.38-2.693.85v4.44h20.03v-4.44c0-.47-1.2-.85-2.693-.85z"/><path d="M129.326 118.137l13.514-4.68v4.117l-13.514 4.68z"/><rect x="128.486" y="118.09" width="2.29" height="7.148" rx="1.092"/><path d="M128.318 124.9h2.614v1.37h-2.614z" paint-order="stroke fill markers" class="F"/><path d="M128.428 122.9h2.402v4.644h-2.402z"/><rect x="130.938" y="122.89" width="1.572" height="5.258" rx="0" ry=".301"/><rect x="126.748" y="122.89" width="1.572" height="5.258" rx="0" ry=".301"/><g transform="matrix(-1 0 0 1 239.738 -76.709984)"><path d="M76.1 194.847l13.514-4.68v4.117l-13.514 4.68z"/><rect x="75.27" y="194.8" width="2.29" height="7.148" rx="1.092"/><path d="M75.102 201.6h2.614v1.37h-2.614z"/><path d="M75.212 199.6h2.402v4.644h-2.402z"/><rect x="77.722" y="199.6" width="1.572" height="5.258" rx="0" ry=".301"/><rect x="73.532" y="199.6" width="1.572" height="5.258" rx="0" ry=".301"/></g><path d="M120.41 88.3h52.85v2.835h-52.85z"/><rect x="169.1" y="58.59" width="10.55" height="3.024" ry="1.276"/><path d="M176.87 60.764l-4.833-.7-3.657 29 4.833.7z"/><g transform="matrix(-1 0 0 1 243.1 -76.71)"><rect x="118.5" y="135.3" width="10.55" height="3.024" ry="1.276"/><path d="M126.27 137.474l-4.833-.7-3.657 29 4.833.7z"/></g></g><rect x="125.998" y="31.99" width="41.69" height="37.42" ry="8.954" class="E"/><rect x="130.308" y="85.49" width="33" height="4.158" rx=".387" ry="1.044" class="C"/><rect x="125.998" y="79.59" width="41.69" height="6.613" ry="1.582" class="E"/><path fill="#999" d="M144.258 69.4h5.103v14.36h-5.103z"/></svg>